<?xml version="1.0" standalone="no"?>
<!DOCTYPE svg PUBLIC "-//W3C//DTD SVG 20010904//EN"
 "http://www.w3.org/TR/2001/REC-SVG-20010904/DTD/svg10.dtd">
<svg version="1.0" xmlns="http://www.w3.org/2000/svg"
 width="220.000000pt" height="220.000000pt" viewBox="0 0 220.000000 220.000000"
 preserveAspectRatio="xMidYMid meet">
<metadata>
Created by potrace 1.15, written by Peter Selinger 2001-2017
</metadata>
<g transform="translate(0.000000,220.000000) scale(0.100000,-0.100000)"
fill="#3E8161" stroke="none">
<path d="M964 1975 c-34 -6 -80 -19 -103 -28 -23 -10 -52 -17 -64 -17 -13 0
-64 -20 -113 -44 -74 -36 -105 -59 -183 -137 -124 -124 -185 -216 -227 -347
-53 -162 -68 -309 -50 -482 13 -130 101 -321 192 -420 110 -118 210 -176 411
-238 112 -35 151 -42 255 -48 269 -14 469 59 646 235 90 91 147 185 206 343
61 163 68 211 57 356 -6 73 -18 152 -29 187 -11 33 -28 85 -37 115 -22 70
-108 213 -160 265 -52 53 -220 164 -315 209 -42 20 -111 43 -154 51 -91 18
-245 18 -332 0z m25 -450 c32 -16 41 -33 41 -74 0 -38 -17 -57 -72 -80 -70
-29 -88 -82 -48 -134 27 -35 72 -46 205 -53 185 -9 308 -62 350 -150 24 -49
31 -141 15 -189 -18 -55 -77 -114 -145 -147 -69 -32 -82 -34 -113 -12 -30 21
-43 55 -33 91 5 21 21 35 67 58 66 33 85 65 68 112 -16 47 -63 65 -192 73
-144 10 -183 17 -247 45 -106 47 -154 114 -155 218 0 92 38 159 119 209 27 17
92 45 109 48 2 0 16 -7 31 -15z m354 -6 c78 -26 107 -52 107 -96 0 -34 -36
-83 -61 -83 -6 0 -49 12 -95 26 -70 21 -87 30 -99 55 -19 36 -11 73 22 99 32
25 49 25 126 -1z m-492 -664 c24 -9 64 -21 89 -26 56 -13 90 -43 90 -81 0 -75
-40 -94 -147 -71 -85 19 -133 46 -147 85 -13 36 9 84 43 97 14 5 27 10 27 10
1 1 21 -6 45 -14z"/>
</g>
</svg>
